<svg xmlns="http://www.w3.org/2000/svg" xmlns:xlink="http://www.w3.org/1999/xlink" width="2000" zoomAndPan="magnify" viewBox="0 0 1500 374.999991" height="500" preserveAspectRatio="xMidYMid meet" version="1.0"><defs><g/><clipPath id="aa274173f0"><path d="M 1344.265625 257.71875 L 1386.238281 257.71875 L 1386.238281 299.691406 L 1344.265625 299.691406 Z M 1344.265625 257.71875 " clip-rule="nonzero"/></clipPath><clipPath id="840560888e"><path d="M 1365.253906 257.71875 C 1353.660156 257.71875 1344.265625 267.113281 1344.265625 278.703125 C 1344.265625 290.296875 1353.660156 299.691406 1365.253906 299.691406 C 1376.84375 299.691406 1386.238281 290.296875 1386.238281 278.703125 C 1386.238281 267.113281 1376.84375 257.71875 1365.253906 257.71875 Z M 1365.253906 257.71875 " clip-rule="nonzero"/></clipPath><clipPath id="b9e41804b3"><path d="M 38 37.5 L 287 37.5 L 287 300 L 38 300 Z M 38 37.5 " clip-rule="nonzero"/></clipPath><clipPath id="7f320d04be"><path d="M 180.96875 159.796875 L 69.492188 159.796875 C 65.167969 159.796875 62.039062 155.664062 63.207031 151.496094 L 93.8125 42.277344 C 94.601562 39.457031 97.171875 37.507812 100.097656 37.507812 L 211.570312 37.507812 C 215.894531 37.507812 219.023438 41.640625 217.855469 45.808594 L 187.25 155.027344 C 186.460938 157.847656 183.894531 159.796875 180.96875 159.796875 Z M 108.5625 242.242188 L 124.320312 186.003906 C 125.488281 181.835938 122.359375 177.703125 118.035156 177.703125 L 60.730469 177.703125 C 57.804688 177.703125 55.238281 179.652344 54.449219 182.472656 L 38.691406 238.707031 C 37.523438 242.878906 40.652344 247.011719 44.972656 247.011719 L 102.277344 247.011719 C 105.203125 247.011719 107.773438 245.0625 108.5625 242.242188 Z M 137.558594 182.472656 L 106.957031 291.691406 C 105.789062 295.859375 108.917969 299.992188 113.238281 299.992188 L 224.714844 299.992188 C 227.640625 299.992188 230.210938 298.042969 231 295.222656 L 261.605469 186.003906 C 262.773438 181.835938 259.644531 177.703125 255.320312 177.703125 L 143.84375 177.703125 C 140.917969 177.703125 138.351562 179.652344 137.558594 182.472656 Z M 216.25 95.257812 L 200.492188 151.496094 C 199.324219 155.664062 202.453125 159.796875 206.777344 159.796875 L 264.082031 159.796875 C 267.003906 159.796875 269.574219 157.847656 270.363281 155.027344 L 286.121094 98.792969 C 287.289062 94.621094 284.160156 90.488281 279.839844 90.488281 L 222.535156 90.488281 C 219.609375 90.488281 217.039062 92.4375 216.25 95.257812 Z M 216.25 95.257812 " clip-rule="nonzero"/></clipPath><linearGradient x1="114.296456" gradientTransform="matrix(0.524244, 0, 0, 0.524976, 38.443659, 37.506109)" y1="-47.633937" x2="358.610882" gradientUnits="userSpaceOnUse" y2="547.607296" id="f17095525a"><stop stop-opacity="1" stop-color="rgb(0%, 98.799133%, 65.899658%)" offset="0"/><stop stop-opacity="1" stop-color="rgb(0%, 98.799133%, 65.899658%)" offset="0.0625"/><stop stop-opacity="1" stop-color="rgb(0.0213623%, 98.773193%, 65.965271%)" offset="0.09375"/><stop stop-opacity="1" stop-color="rgb(0.100708%, 98.677063%, 66.210938%)" offset="0.101562"/><stop stop-opacity="1" stop-color="rgb(0.216675%, 98.536682%, 66.571045%)" offset="0.109375"/><stop stop-opacity="1" stop-color="rgb(0.332642%, 98.396301%, 66.929626%)" offset="0.117188"/><stop stop-opacity="1" stop-color="rgb(0.448608%, 98.25592%, 67.289734%)" offset="0.125"/><stop stop-opacity="1" stop-color="rgb(0.564575%, 98.117065%, 67.649841%)" offset="0.132812"/><stop stop-opacity="1" stop-color="rgb(0.679016%, 97.976685%, 68.008423%)" offset="0.140625"/><stop stop-opacity="1" stop-color="rgb(0.794983%, 97.836304%, 68.36853%)" offset="0.148438"/><stop stop-opacity="1" stop-color="rgb(0.91095%, 97.695923%, 68.727112%)" offset="0.15625"/><stop stop-opacity="1" stop-color="rgb(1.026917%, 97.555542%, 69.087219%)" offset="0.164062"/><stop stop-opacity="1" stop-color="rgb(1.142883%, 97.415161%, 69.445801%)" offset="0.171875"/><stop stop-opacity="1" stop-color="rgb(1.25885%, 97.27478%, 69.805908%)" offset="0.179688"/><stop stop-opacity="1" stop-color="rgb(1.374817%, 97.135925%, 70.16449%)" offset="0.1875"/><stop stop-opacity="1" stop-color="rgb(1.490784%, 96.995544%, 70.524597%)" offset="0.195312"/><stop stop-opacity="1" stop-color="rgb(1.60675%, 96.855164%, 70.883179%)" offset="0.203125"/><stop stop-opacity="1" stop-color="rgb(1.722717%, 96.714783%, 71.243286%)" offset="0.210937"/><stop stop-opacity="1" stop-color="rgb(1.838684%, 96.574402%, 71.603394%)" offset="0.21875"/><stop stop-opacity="1" stop-color="rgb(1.954651%, 96.434021%, 71.961975%)" offset="0.226562"/><stop stop-opacity="1" stop-color="rgb(2.070618%, 96.29364%, 72.322083%)" offset="0.234375"/><stop stop-opacity="1" stop-color="rgb(2.186584%, 96.153259%, 72.680664%)" offset="0.242187"/><stop stop-opacity="1" stop-color="rgb(2.302551%, 96.014404%, 73.040771%)" offset="0.25"/><stop stop-opacity="1" stop-color="rgb(2.418518%, 95.874023%, 73.399353%)" offset="0.257812"/><stop stop-opacity="1" stop-color="rgb(2.534485%, 95.733643%, 73.75946%)" offset="0.265625"/><stop stop-opacity="1" stop-color="rgb(2.650452%, 95.593262%, 74.118042%)" offset="0.273438"/><stop stop-opacity="1" stop-color="rgb(2.766418%, 95.452881%, 74.478149%)" offset="0.281113"/><stop stop-opacity="1" stop-color="rgb(2.824402%, 95.38269%, 74.658203%)" offset="0.28125"/><stop stop-opacity="1" stop-color="rgb(2.882385%, 95.3125%, 74.836731%)" offset="0.289062"/><stop stop-opacity="1" stop-color="rgb(2.998352%, 95.172119%, 75.196838%)" offset="0.296875"/><stop stop-opacity="1" stop-color="rgb(3.114319%, 95.031738%, 75.556946%)" offset="0.304687"/><stop stop-opacity="1" stop-color="rgb(3.230286%, 94.892883%, 75.915527%)" offset="0.3125"/><stop stop-opacity="1" stop-color="rgb(3.346252%, 94.752502%, 76.275635%)" offset="0.320312"/><stop stop-opacity="1" stop-color="rgb(3.462219%, 94.612122%, 76.634216%)" offset="0.328125"/><stop stop-opacity="1" stop-color="rgb(3.578186%, 94.471741%, 76.994324%)" offset="0.335937"/><stop stop-opacity="1" stop-color="rgb(3.694153%, 94.33136%, 77.352905%)" offset="0.34375"/><stop stop-opacity="1" stop-color="rgb(3.81012%, 94.190979%, 77.713013%)" offset="0.351562"/><stop stop-opacity="1" stop-color="rgb(3.926086%, 94.050598%, 78.071594%)" offset="0.359375"/><stop stop-opacity="1" stop-color="rgb(4.042053%, 93.911743%, 78.431702%)" offset="0.367187"/><stop stop-opacity="1" stop-color="rgb(4.15802%, 93.771362%, 78.790283%)" offset="0.375"/><stop stop-opacity="1" stop-color="rgb(4.273987%, 93.630981%, 79.150391%)" offset="0.382812"/><stop stop-opacity="1" stop-color="rgb(4.389954%, 93.490601%, 79.510498%)" offset="0.390625"/><stop stop-opacity="1" stop-color="rgb(4.50592%, 93.35022%, 79.86908%)" offset="0.398437"/><stop stop-opacity="1" stop-color="rgb(4.621887%, 93.209839%, 80.229187%)" offset="0.40625"/><stop stop-opacity="1" stop-color="rgb(4.737854%, 93.069458%, 80.587769%)" offset="0.414062"/><stop stop-opacity="1" stop-color="rgb(4.853821%, 92.929077%, 80.947876%)" offset="0.421875"/><stop stop-opacity="1" stop-color="rgb(4.969788%, 92.790222%, 81.306458%)" offset="0.429687"/><stop stop-opacity="1" stop-color="rgb(5.085754%, 92.649841%, 81.666565%)" offset="0.4375"/><stop stop-opacity="1" stop-color="rgb(5.201721%, 92.50946%, 82.025146%)" offset="0.445312"/><stop stop-opacity="1" stop-color="rgb(5.317688%, 92.36908%, 82.385254%)" offset="0.453125"/><stop stop-opacity="1" stop-color="rgb(5.433655%, 92.228699%, 82.743835%)" offset="0.460937"/><stop stop-opacity="1" stop-color="rgb(5.549622%, 92.088318%, 83.103943%)" offset="0.46875"/><stop stop-opacity="1" stop-color="rgb(5.665588%, 91.947937%, 83.46405%)" offset="0.476562"/><stop stop-opacity="1" stop-color="rgb(5.781555%, 91.807556%, 83.822632%)" offset="0.484375"/><stop stop-opacity="1" stop-color="rgb(5.897522%, 91.668701%, 84.182739%)" offset="0.492187"/><stop stop-opacity="1" stop-color="rgb(6.013489%, 91.52832%, 84.541321%)" offset="0.5"/><stop stop-opacity="1" stop-color="rgb(6.129456%, 91.387939%, 84.901428%)" offset="0.507812"/><stop stop-opacity="1" stop-color="rgb(6.245422%, 91.247559%, 85.26001%)" offset="0.515625"/><stop stop-opacity="1" stop-color="rgb(6.361389%, 91.107178%, 85.620117%)" offset="0.523437"/><stop stop-opacity="1" stop-color="rgb(6.477356%, 90.966797%, 85.978699%)" offset="0.53125"/><stop stop-opacity="1" stop-color="rgb(6.593323%, 90.826416%, 86.338806%)" offset="0.539062"/><stop stop-opacity="1" stop-color="rgb(6.70929%, 90.687561%, 86.697388%)" offset="0.546875"/><stop stop-opacity="1" stop-color="rgb(6.825256%, 90.54718%, 87.057495%)" offset="0.554687"/><stop stop-opacity="1" stop-color="rgb(6.941223%, 90.406799%, 87.417603%)" offset="0.5625"/><stop stop-opacity="1" stop-color="rgb(7.05719%, 90.266418%, 87.776184%)" offset="0.570312"/><stop stop-opacity="1" stop-color="rgb(7.171631%, 90.126038%, 88.136292%)" offset="0.578125"/><stop stop-opacity="1" stop-color="rgb(7.287598%, 89.985657%, 88.494873%)" offset="0.585938"/><stop stop-opacity="1" stop-color="rgb(7.403564%, 89.845276%, 88.85498%)" offset="0.59375"/><stop stop-opacity="1" stop-color="rgb(7.519531%, 89.704895%, 89.213562%)" offset="0.601562"/><stop stop-opacity="1" stop-color="rgb(7.635498%, 89.56604%, 89.573669%)" offset="0.609375"/><stop stop-opacity="1" stop-color="rgb(7.751465%, 89.425659%, 89.932251%)" offset="0.617188"/><stop stop-opacity="1" stop-color="rgb(7.867432%, 89.285278%, 90.292358%)" offset="0.625"/><stop stop-opacity="1" stop-color="rgb(7.983398%, 89.144897%, 90.65094%)" offset="0.632812"/><stop stop-opacity="1" stop-color="rgb(8.099365%, 89.004517%, 91.011047%)" offset="0.640625"/><stop stop-opacity="1" stop-color="rgb(8.215332%, 88.864136%, 91.371155%)" offset="0.648438"/><stop stop-opacity="1" stop-color="rgb(8.331299%, 88.723755%, 91.729736%)" offset="0.65625"/><stop stop-opacity="1" stop-color="rgb(8.447266%, 88.583374%, 92.089844%)" offset="0.664062"/><stop stop-opacity="1" stop-color="rgb(8.563232%, 88.444519%, 92.448425%)" offset="0.671875"/><stop stop-opacity="1" stop-color="rgb(8.679199%, 88.304138%, 92.808533%)" offset="0.679688"/><stop stop-opacity="1" stop-color="rgb(8.795166%, 88.163757%, 93.167114%)" offset="0.6875"/><stop stop-opacity="1" stop-color="rgb(8.911133%, 88.023376%, 93.527222%)" offset="0.695312"/><stop stop-opacity="1" stop-color="rgb(9.0271%, 87.882996%, 93.885803%)" offset="0.703125"/><stop stop-opacity="1" stop-color="rgb(9.143066%, 87.742615%, 94.245911%)" offset="0.710938"/><stop stop-opacity="1" stop-color="rgb(9.259033%, 87.602234%, 94.604492%)" offset="0.71875"/><stop stop-opacity="1" stop-color="rgb(9.375%, 87.463379%, 94.9646%)" offset="0.718887"/><stop stop-opacity="1" stop-color="rgb(9.432983%, 87.393188%, 95.144653%)" offset="0.726562"/><stop stop-opacity="1" stop-color="rgb(9.490967%, 87.322998%, 95.324707%)" offset="0.734375"/><stop stop-opacity="1" stop-color="rgb(9.606934%, 87.182617%, 95.683289%)" offset="0.742188"/><stop stop-opacity="1" stop-color="rgb(9.7229%, 87.042236%, 96.043396%)" offset="0.75"/><stop stop-opacity="1" stop-color="rgb(9.838867%, 86.901855%, 96.401978%)" offset="0.757812"/><stop stop-opacity="1" stop-color="rgb(9.954834%, 86.761475%, 96.762085%)" offset="0.765625"/><stop stop-opacity="1" stop-color="rgb(10.070801%, 86.621094%, 97.120667%)" offset="0.773438"/><stop stop-opacity="1" stop-color="rgb(10.186768%, 86.480713%, 97.480774%)" offset="0.78125"/><stop stop-opacity="1" stop-color="rgb(10.302734%, 86.341858%, 97.839355%)" offset="0.789062"/><stop stop-opacity="1" stop-color="rgb(10.418701%, 86.201477%, 98.199463%)" offset="0.796875"/><stop stop-opacity="1" stop-color="rgb(10.534668%, 86.061096%, 98.558044%)" offset="0.804688"/><stop stop-opacity="1" stop-color="rgb(10.650635%, 85.920715%, 98.918152%)" offset="0.8125"/><stop stop-opacity="1" stop-color="rgb(10.766602%, 85.780334%, 99.278259%)" offset="0.820312"/><stop stop-opacity="1" stop-color="rgb(10.882568%, 85.639954%, 99.636841%)" offset="0.828125"/><stop stop-opacity="1" stop-color="rgb(10.969543%, 85.534668%, 99.908447%)" offset="0.84375"/><stop stop-opacity="1" stop-color="rgb(10.998535%, 85.499573%, 100%)" offset="0.875"/><stop stop-opacity="1" stop-color="rgb(10.998535%, 85.499573%, 100%)" offset="1"/></linearGradient></defs><g fill="#000000" fill-opacity="1"><g transform="translate(272.883545, 299.48448)"><g><path d="M 25.359375 0 C 23.097656 0 21.191406 -0.769531 19.640625 -2.3125 C 18.097656 -3.863281 17.328125 -5.769531 17.328125 -8.03125 L 17.328125 -116.46875 C 17.328125 -118.738281 18.097656 -120.675781 19.640625 -122.28125 C 21.191406 -123.882812 23.097656 -124.6875 25.359375 -124.6875 L 61.28125 -124.6875 C 74.851562 -124.6875 86.375 -121.679688 95.84375 -115.671875 C 105.3125 -109.660156 112.425781 -101.890625 117.1875 -92.359375 C 121.945312 -82.828125 124.328125 -72.820312 124.328125 -62.34375 C 124.328125 -51.863281 121.945312 -41.859375 117.1875 -32.328125 C 112.425781 -22.804688 105.3125 -15.035156 95.84375 -9.015625 C 86.375 -3.003906 74.851562 0 61.28125 0 Z M 59.3125 -15.1875 C 69.070312 -15.1875 77.644531 -17.179688 85.03125 -21.171875 C 92.414062 -25.160156 98.128906 -30.695312 102.171875 -37.78125 C 106.222656 -44.863281 108.25 -53.050781 108.25 -62.34375 C 108.25 -71.632812 106.222656 -79.820312 102.171875 -86.90625 C 98.128906 -93.988281 92.414062 -99.523438 85.03125 -103.515625 C 77.644531 -107.503906 69.070312 -109.5 59.3125 -109.5 L 33.578125 -109.5 L 33.578125 -15.1875 Z M 59.3125 -15.1875 "/></g></g></g><g fill="#000000" fill-opacity="1"><g transform="translate(407.042674, 299.48448)"><g><path d="M 25.359375 0.890625 C 23.097656 0.890625 21.191406 0.117188 19.640625 -1.421875 C 18.097656 -2.972656 17.328125 -4.878906 17.328125 -7.140625 L 17.328125 -117.359375 C 17.328125 -119.628906 18.097656 -121.566406 19.640625 -123.171875 C 21.191406 -124.773438 23.097656 -125.578125 25.359375 -125.578125 C 27.628906 -125.578125 29.566406 -124.773438 31.171875 -123.171875 C 32.773438 -121.566406 33.578125 -119.628906 33.578125 -117.359375 L 33.578125 -7.140625 C 33.578125 -4.878906 32.773438 -2.972656 31.171875 -1.421875 C 29.566406 0.117188 27.628906 0.890625 25.359375 0.890625 Z M 25.359375 0.890625 "/></g></g></g><g fill="#000000" fill-opacity="1"><g transform="translate(457.95526, 299.48448)"><g><path d="M 25.359375 0.890625 C 23.097656 0.890625 21.191406 0.117188 19.640625 -1.421875 C 18.097656 -2.972656 17.328125 -4.878906 17.328125 -7.140625 L 17.328125 -116.46875 C 17.328125 -118.738281 18.097656 -120.675781 19.640625 -122.28125 C 21.191406 -123.882812 23.097656 -124.6875 25.359375 -124.6875 L 66.984375 -124.6875 C 83.179688 -124.6875 95.328125 -121.351562 103.421875 -114.6875 C 111.523438 -108.019531 115.578125 -99.265625 115.578125 -88.421875 C 115.578125 -81.273438 113.582031 -74.753906 109.59375 -68.859375 C 105.601562 -62.960938 99.796875 -58.707031 92.171875 -56.09375 C 100.753906 -53.832031 106.625 -48.503906 109.78125 -40.109375 C 112.9375 -31.710938 114.515625 -23.460938 114.515625 -15.359375 L 114.515625 -7.140625 C 114.515625 -4.878906 113.738281 -2.972656 112.1875 -1.421875 C 110.632812 0.117188 108.726562 0.890625 106.46875 0.890625 C 103.96875 0.890625 101.972656 0.144531 100.484375 -1.34375 C 98.992188 -2.832031 98.25 -4.765625 98.25 -7.140625 L 98.25 -12.5 C 98.25 -18.457031 97.710938 -23.96875 96.640625 -29.03125 C 95.566406 -34.09375 93.003906 -38.617188 88.953125 -42.609375 C 84.910156 -46.597656 78.78125 -48.59375 70.5625 -48.59375 L 33.578125 -48.59375 L 33.578125 -7.140625 C 33.578125 -4.878906 32.773438 -2.972656 31.171875 -1.421875 C 29.566406 0.117188 27.628906 0.890625 25.359375 0.890625 Z M 65.921875 -63.953125 C 76.160156 -63.953125 84.285156 -65.972656 90.296875 -70.015625 C 96.316406 -74.066406 99.328125 -79.785156 99.328125 -87.171875 C 99.328125 -94.316406 96.734375 -99.796875 91.546875 -103.609375 C 86.367188 -107.421875 77.53125 -109.328125 65.03125 -109.328125 L 33.578125 -109.328125 L 33.578125 -63.953125 Z M 65.921875 -63.953125 "/></g></g></g><g fill="#000000" fill-opacity="1"><g transform="translate(585.147407, 299.48448)"><g><path d="M 25.359375 0 C 23.097656 0 21.191406 -0.769531 19.640625 -2.3125 C 18.097656 -3.863281 17.328125 -5.769531 17.328125 -8.03125 L 17.328125 -116.46875 C 17.328125 -118.738281 18.097656 -120.675781 19.640625 -122.28125 C 21.191406 -123.882812 23.097656 -124.6875 25.359375 -124.6875 L 97 -124.6875 C 99.144531 -124.6875 100.960938 -123.941406 102.453125 -122.453125 C 103.941406 -120.960938 104.6875 -119.148438 104.6875 -117.015625 C 104.6875 -114.867188 103.941406 -113.078125 102.453125 -111.640625 C 100.960938 -110.210938 99.144531 -109.5 97 -109.5 L 33.578125 -109.5 L 33.578125 -70.03125 L 90.578125 -70.03125 C 92.710938 -70.03125 94.523438 -69.285156 96.015625 -67.796875 C 97.503906 -66.304688 98.25 -64.488281 98.25 -62.34375 C 98.25 -60.195312 97.503906 -58.410156 96.015625 -56.984375 C 94.523438 -55.554688 92.710938 -54.84375 90.578125 -54.84375 L 33.578125 -54.84375 L 33.578125 -15.1875 L 97 -15.1875 C 99.144531 -15.1875 100.960938 -14.441406 102.453125 -12.953125 C 103.941406 -11.460938 104.6875 -9.644531 104.6875 -7.5 C 104.6875 -5.351562 103.941406 -3.566406 102.453125 -2.140625 C 100.960938 -0.710938 99.144531 0 97 0 Z M 25.359375 0 "/></g></g></g><g fill="#000000" fill-opacity="1"><g transform="translate(699.12014, 299.48448)"><g><path d="M 72.34375 1.78125 C 60.4375 1.78125 49.75 -0.804688 40.28125 -5.984375 C 30.8125 -11.160156 23.367188 -18.601562 17.953125 -28.3125 C 12.535156 -38.019531 9.828125 -49.363281 9.828125 -62.34375 C 9.828125 -75.320312 12.535156 -86.664062 17.953125 -96.375 C 23.367188 -106.082031 30.8125 -113.523438 40.28125 -118.703125 C 49.75 -123.890625 60.4375 -126.484375 72.34375 -126.484375 C 80.445312 -126.484375 87.679688 -125.53125 94.046875 -123.625 C 100.421875 -121.71875 106.765625 -118.976562 113.078125 -115.40625 C 115.703125 -113.976562 117.015625 -111.710938 117.015625 -108.609375 C 117.015625 -106.828125 116.359375 -105.25 115.046875 -103.875 C 113.734375 -102.507812 112.003906 -101.828125 109.859375 -101.828125 C 108.671875 -101.828125 107.601562 -102.066406 106.65625 -102.546875 C 101.40625 -105.285156 96.28125 -107.367188 91.28125 -108.796875 C 86.28125 -110.222656 80.503906 -110.9375 73.953125 -110.9375 C 63.710938 -110.9375 54.988281 -108.820312 47.78125 -104.59375 C 40.582031 -100.363281 35.164062 -94.585938 31.53125 -87.265625 C 27.894531 -79.941406 26.078125 -71.632812 26.078125 -62.34375 C 26.078125 -53.050781 27.894531 -44.742188 31.53125 -37.421875 C 35.164062 -30.097656 40.582031 -24.320312 47.78125 -20.09375 C 54.988281 -15.863281 63.710938 -13.75 73.953125 -13.75 C 80.503906 -13.75 86.28125 -14.460938 91.28125 -15.890625 C 96.28125 -17.328125 101.40625 -19.414062 106.65625 -22.15625 C 107.601562 -22.625 108.671875 -22.859375 109.859375 -22.859375 C 112.003906 -22.859375 113.734375 -22.203125 115.046875 -20.890625 C 116.359375 -19.585938 117.015625 -17.984375 117.015625 -16.078125 C 117.015625 -12.984375 115.703125 -10.722656 113.078125 -9.296875 C 106.765625 -5.722656 100.421875 -2.984375 94.046875 -1.078125 C 87.679688 0.828125 80.445312 1.78125 72.34375 1.78125 Z M 72.34375 1.78125 "/></g></g></g><g fill="#000000" fill-opacity="1"><g transform="translate(823.275389, 299.48448)"><g><path d="M 54.3125 0.890625 C 52.039062 0.890625 50.128906 0.117188 48.578125 -1.421875 C 47.035156 -2.972656 46.265625 -4.878906 46.265625 -7.140625 L 46.265625 -109.5 L 9.828125 -109.5 C 7.679688 -109.5 5.894531 -110.210938 4.46875 -111.640625 C 3.039062 -113.078125 2.328125 -114.867188 2.328125 -117.015625 C 2.328125 -119.148438 3.039062 -120.960938 4.46875 -122.453125 C 5.894531 -123.941406 7.679688 -124.6875 9.828125 -124.6875 L 98.78125 -124.6875 C 100.925781 -124.6875 102.742188 -123.941406 104.234375 -122.453125 C 105.722656 -120.960938 106.46875 -119.148438 106.46875 -117.015625 C 106.46875 -114.867188 105.722656 -113.078125 104.234375 -111.640625 C 102.742188 -110.210938 100.925781 -109.5 98.78125 -109.5 L 62.53125 -109.5 L 62.53125 -7.140625 C 62.53125 -4.878906 61.722656 -2.972656 60.109375 -1.421875 C 58.503906 0.117188 56.570312 0.890625 54.3125 0.890625 Z M 54.3125 0.890625 "/></g></g></g><g fill="#000000" fill-opacity="1"><g transform="translate(932.067542, 299.48448)"><g><path d="M 72.53125 1.78125 C 60.019531 1.78125 49.0625 -0.957031 39.65625 -6.4375 C 30.25 -11.914062 22.984375 -19.476562 17.859375 -29.125 C 12.742188 -38.769531 10.066406 -49.84375 9.828125 -62.34375 C 10.066406 -74.851562 12.742188 -85.929688 17.859375 -95.578125 C 22.984375 -105.222656 30.25 -112.785156 39.65625 -118.265625 C 49.0625 -123.742188 60.019531 -126.484375 72.53125 -126.484375 C 85.03125 -126.484375 95.953125 -123.742188 105.296875 -118.265625 C 114.648438 -112.785156 121.914062 -105.191406 127.09375 -95.484375 C 132.28125 -85.773438 134.992188 -74.726562 135.234375 -62.34375 C 134.992188 -49.957031 132.28125 -38.910156 127.09375 -29.203125 C 121.914062 -19.503906 114.648438 -11.914062 105.296875 -6.4375 C 95.953125 -0.957031 85.03125 1.78125 72.53125 1.78125 Z M 72.53125 -13.390625 C 82.050781 -13.390625 90.328125 -15.535156 97.359375 -19.828125 C 104.390625 -24.117188 109.75 -29.953125 113.4375 -37.328125 C 117.125 -44.710938 118.96875 -53.050781 118.96875 -62.34375 C 118.96875 -71.632812 117.125 -79.972656 113.4375 -87.359375 C 109.75 -94.742188 104.390625 -100.578125 97.359375 -104.859375 C 90.328125 -109.148438 82.050781 -111.296875 72.53125 -111.296875 C 62.882812 -111.296875 54.578125 -109.148438 47.609375 -104.859375 C 40.640625 -100.578125 35.304688 -94.742188 31.609375 -87.359375 C 27.921875 -79.972656 26.078125 -71.632812 26.078125 -62.34375 C 26.078125 -53.050781 27.921875 -44.710938 31.609375 -37.328125 C 35.304688 -29.953125 40.640625 -24.117188 47.609375 -19.828125 C 54.578125 -15.535156 62.882812 -13.390625 72.53125 -13.390625 Z M 72.53125 -13.390625 "/></g></g></g><g fill="#000000" fill-opacity="1"><g transform="translate(1077.123728, 299.48448)"><g><path d="M 25.359375 0.890625 C 23.097656 0.890625 21.191406 0.117188 19.640625 -1.421875 C 18.097656 -2.972656 17.328125 -4.878906 17.328125 -7.140625 L 17.328125 -116.46875 C 17.328125 -118.738281 18.097656 -120.675781 19.640625 -122.28125 C 21.191406 -123.882812 23.097656 -124.6875 25.359375 -124.6875 L 66.984375 -124.6875 C 83.179688 -124.6875 95.328125 -121.351562 103.421875 -114.6875 C 111.523438 -108.019531 115.578125 -99.265625 115.578125 -88.421875 C 115.578125 -81.273438 113.582031 -74.753906 109.59375 -68.859375 C 105.601562 -62.960938 99.796875 -58.707031 92.171875 -56.09375 C 100.753906 -53.832031 106.625 -48.503906 109.78125 -40.109375 C 112.9375 -31.710938 114.515625 -23.460938 114.515625 -15.359375 L 114.515625 -7.140625 C 114.515625 -4.878906 113.738281 -2.972656 112.1875 -1.421875 C 110.632812 0.117188 108.726562 0.890625 106.46875 0.890625 C 103.96875 0.890625 101.972656 0.144531 100.484375 -1.34375 C 98.992188 -2.832031 98.25 -4.765625 98.25 -7.140625 L 98.25 -12.5 C 98.25 -18.457031 97.710938 -23.96875 96.640625 -29.03125 C 95.566406 -34.09375 93.003906 -38.617188 88.953125 -42.609375 C 84.910156 -46.597656 78.78125 -48.59375 70.5625 -48.59375 L 33.578125 -48.59375 L 33.578125 -7.140625 C 33.578125 -4.878906 32.773438 -2.972656 31.171875 -1.421875 C 29.566406 0.117188 27.628906 0.890625 25.359375 0.890625 Z M 65.921875 -63.953125 C 76.160156 -63.953125 84.285156 -65.972656 90.296875 -70.015625 C 96.316406 -74.066406 99.328125 -79.785156 99.328125 -87.171875 C 99.328125 -94.316406 96.734375 -99.796875 91.546875 -103.609375 C 86.367188 -107.421875 77.53125 -109.328125 65.03125 -109.328125 L 33.578125 -109.328125 L 33.578125 -63.953125 Z M 65.921875 -63.953125 "/></g></g></g><g fill="#000000" fill-opacity="1"><g transform="translate(1204.315919, 299.48448)"><g><path d="M 57.171875 0.890625 C 54.898438 0.890625 52.960938 0.117188 51.359375 -1.421875 C 49.753906 -2.972656 48.953125 -4.878906 48.953125 -7.140625 L 48.953125 -52.703125 L 6.25 -112.546875 C 5.300781 -114.085938 4.828125 -115.691406 4.828125 -117.359375 C 4.828125 -119.628906 5.570312 -121.566406 7.0625 -123.171875 C 8.550781 -124.773438 10.425781 -125.578125 12.6875 -125.578125 C 15.664062 -125.578125 18.046875 -124.207031 19.828125 -121.46875 L 57.171875 -67.171875 L 94.5 -121.46875 C 96.289062 -124.207031 98.671875 -125.578125 101.640625 -125.578125 C 103.910156 -125.578125 105.816406 -124.773438 107.359375 -123.171875 C 108.910156 -121.566406 109.625 -119.628906 109.5 -117.359375 C 109.5 -115.691406 109.023438 -114.085938 108.078125 -112.546875 L 65.203125 -52.703125 L 65.203125 -7.140625 C 65.203125 -4.878906 64.425781 -2.972656 62.875 -1.421875 C 61.332031 0.117188 59.429688 0.890625 57.171875 0.890625 Z M 57.171875 0.890625 "/></g></g></g><g clip-path="url(#aa274173f0)"><g clip-path="url(#840560888e)"><path fill="#00faa8" d="M 1344.265625 257.71875 L 1386.238281 257.71875 L 1386.238281 299.691406 L 1344.265625 299.691406 Z M 1344.265625 257.71875 " fill-opacity="1" fill-rule="nonzero"/></g></g><g clip-path="url(#b9e41804b3)"><g clip-path="url(#7f320d04be)"><path fill="url(#f17095525a)" d="M 37.523438 37.507812 L 37.523438 299.992188 L 287.25 299.992188 L 287.25 37.507812 Z M 37.523438 37.507812 " fill-rule="nonzero"/></g></g></svg>